<svg width="23" height="23" viewBox="0 0 23 23" fill="none" xmlns="http://www.w3.org/2000/svg">
<path d="M18.9653 14.3079C16.9911 16.2725 14.164 16.8763 11.682 16.1L7.16821 20.6042C6.84238 20.9396 6.20029 21.1408 5.74029 21.0738L3.65113 20.7863C2.96113 20.6904 2.31904 20.0388 2.21363 19.3488L1.92613 17.2596C1.85904 16.7996 2.07946 16.1575 2.39571 15.8317L6.89988 11.3275C6.13321 8.83584 6.72738 6.00875 8.70154 4.04417C11.5286 1.21709 16.119 1.21709 18.9557 4.04417C21.7924 6.87125 21.7924 11.4808 18.9653 14.3079Z" stroke="#6E6E6E" stroke-width="1.5" stroke-miterlimit="10" stroke-linecap="round" stroke-linejoin="round"/>
<path d="M6.60303 16.7613L8.80719 18.9654" stroke="#6E6E6E" stroke-width="1.5" stroke-miterlimit="10" stroke-linecap="round" stroke-linejoin="round"/>
<path d="M13.896 10.5417C14.6899 10.5417 15.3335 9.89807 15.3335 9.10416C15.3335 8.31025 14.6899 7.66666 13.896 7.66666C13.1021 7.66666 12.4585 8.31025 12.4585 9.10416C12.4585 9.89807 13.1021 10.5417 13.896 10.5417Z" stroke="#6E6E6E" stroke-width="1.5" stroke-linecap="round" stroke-linejoin="round"/>
</svg>
